<svg width="651" height="653" viewBox="0 0 651 653" fill="none" xmlns="http://www.w3.org/2000/svg">
<path d="M0 256V472C0 494.091 17.9086 512 40 512H256H472C494.091 512 512 494.091 512 472V256V40C512 17.9086 494.091 0 472 0H256H40C17.9086 0 0 17.9086 0 40V256Z" fill="#007ACC"/>
<g filter="url(#filter0_d_0_1)">
<path d="M113.222 257.698L113.06 278.666H146.38H179.701L179.701 373.345V468.025H203.269H226.838V373.345L226.838 278.666H260.158H293.479V258.105C293.479 246.727 293.235 237.218 292.91 236.974C292.666 236.649 252.112 236.487 202.944 236.568L113.466 236.812L113.222 257.698Z" fill="white"/>
</g>
<g filter="url(#filter1_d_0_1)">
<path d="M413.133 236.217C426.136 239.467 436.051 245.238 445.154 254.665C449.867 259.704 456.856 268.887 457.425 271.081C457.588 271.732 435.32 286.685 421.829 295.056C421.341 295.381 419.391 293.268 417.197 290.017C410.614 280.427 403.706 276.283 393.141 275.551C377.618 274.495 367.622 282.622 367.703 296.194C367.703 300.176 368.272 302.533 369.898 305.784C373.311 312.854 379.65 317.08 399.561 325.695C436.214 341.461 451.899 351.864 461.651 366.655C472.541 383.153 474.98 409.484 467.584 429.07C459.457 450.363 439.302 464.829 410.939 469.624C402.162 471.168 381.357 470.924 371.929 469.217C351.368 465.56 331.863 455.401 319.835 442.073C315.122 436.872 305.938 423.3 306.507 422.325C306.751 422 308.864 420.699 311.221 419.318C313.496 418.017 322.111 413.06 330.238 408.346L344.948 399.813L348.036 404.364C352.343 410.947 361.771 419.968 367.46 422.975C383.795 431.589 406.225 430.37 417.278 420.455C421.992 416.148 423.942 411.678 423.942 405.095C423.942 399.163 423.211 396.562 420.122 392.092C416.14 386.403 408.013 381.608 384.933 371.612C358.52 360.234 347.142 353.164 336.74 341.949C330.726 335.447 325.037 325.045 322.68 316.349C320.729 309.116 320.242 290.993 321.786 283.678C327.231 258.16 346.492 240.361 374.286 235.079C383.307 233.372 404.275 234.022 413.133 236.217Z" fill="white"/>
</g>
<circle cx="515" cy="515" r="123" fill="#373F51"/>
<g filter="url(#filter2_d_0_1)">
<path d="M515 386C548.417 386 580.466 399.275 604.095 422.905C627.725 446.534 641 478.583 641 512C641 545.417 627.725 577.466 604.095 601.095C580.466 624.725 548.417 638 515 638C481.583 638 449.534 624.725 425.905 601.095C402.275 577.466 389 545.417 389 512C389 478.583 402.275 446.534 425.905 422.905C449.534 399.275 481.583 386 515 386ZM521.678 439.856C507.026 439.856 495.542 444.014 487.028 452.33C478.316 460.646 474.158 472.13 474.158 486.782H496.73C496.73 478.466 498.314 471.932 501.68 467.378C505.442 461.834 511.58 459.26 520.292 459.26C527.024 459.26 532.37 461.042 536.132 464.804C539.696 468.566 541.676 473.714 541.676 480.248C541.676 485.198 539.894 489.95 536.33 494.306L533.954 497.078C521.084 508.562 513.362 516.878 510.788 522.224C508.016 527.57 506.828 534.104 506.828 541.628V544.4H529.598V541.628C529.598 536.876 530.588 532.718 532.568 528.758C534.35 525.194 536.924 521.828 540.488 518.858C549.992 510.542 555.734 505.196 557.516 503.216C562.268 496.88 564.842 488.762 564.842 478.862C564.842 466.784 560.882 457.28 552.962 450.35C545.042 443.222 534.548 439.856 521.678 439.856ZM518.114 554.102C514.077 553.993 510.161 555.488 507.224 558.26C505.774 559.626 504.635 561.287 503.883 563.132C503.131 564.977 502.785 566.962 502.868 568.952C502.868 573.308 504.254 576.872 507.224 579.644C510.139 582.473 514.052 584.038 518.114 584C522.47 584 526.034 582.614 529.004 579.842C530.485 578.448 531.656 576.758 532.44 574.882C533.225 573.006 533.606 570.985 533.558 568.952C533.596 566.967 533.229 564.996 532.48 563.158C531.732 561.319 530.616 559.653 529.202 558.26C526.189 555.483 522.21 553.991 518.114 554.102Z" fill="#DFDFDF"/>
</g>
<defs>
<filter id="filter0_d_0_1" x="103.06" y="231.547" width="200.419" height="251.477" filterUnits="userSpaceOnUse" color-interpolation-filters="sRGB">
<feFlood flood-opacity="0" result="BackgroundImageFix"/>
<feColorMatrix in="SourceAlpha" type="matrix" values="0 0 0 0 0 0 0 0 0 0 0 0 0 0 0 0 0 0 127 0" result="hardAlpha"/>
<feOffset dy="5"/>
<feGaussianBlur stdDeviation="5"/>
<feComposite in2="hardAlpha" operator="out"/>
<feColorMatrix type="matrix" values="0 0 0 0 0 0 0 0 0 0 0 0 0 0 0 0 0 0 1 0"/>
<feBlend mode="normal" in2="BackgroundImageFix" result="effect1_dropShadow_0_1"/>
<feBlend mode="normal" in="SourceGraphic" in2="effect1_dropShadow_0_1" result="shape"/>
</filter>
<filter id="filter1_d_0_1" x="296.482" y="229.109" width="185.35" height="256.542" filterUnits="userSpaceOnUse" color-interpolation-filters="sRGB">
<feFlood flood-opacity="0" result="BackgroundImageFix"/>
<feColorMatrix in="SourceAlpha" type="matrix" values="0 0 0 0 0 0 0 0 0 0 0 0 0 0 0 0 0 0 127 0" result="hardAlpha"/>
<feOffset dy="5"/>
<feGaussianBlur stdDeviation="5"/>
<feComposite in2="hardAlpha" operator="out"/>
<feColorMatrix type="matrix" values="0 0 0 0 0 0 0 0 0 0 0 0 0 0 0 0 0 0 1 0"/>
<feBlend mode="normal" in2="BackgroundImageFix" result="effect1_dropShadow_0_1"/>
<feBlend mode="normal" in="SourceGraphic" in2="effect1_dropShadow_0_1" result="shape"/>
</filter>
<filter id="filter2_d_0_1" x="379" y="381" width="272" height="272" filterUnits="userSpaceOnUse" color-interpolation-filters="sRGB">
<feFlood flood-opacity="0" result="BackgroundImageFix"/>
<feColorMatrix in="SourceAlpha" type="matrix" values="0 0 0 0 0 0 0 0 0 0 0 0 0 0 0 0 0 0 127 0" result="hardAlpha"/>
<feOffset dy="5"/>
<feGaussianBlur stdDeviation="5"/>
<feComposite in2="hardAlpha" operator="out"/>
<feColorMatrix type="matrix" values="0 0 0 0 0 0 0 0 0 0 0 0 0 0 0 0 0 0 0.25 0"/>
<feBlend mode="normal" in2="BackgroundImageFix" result="effect1_dropShadow_0_1"/>
<feBlend mode="normal" in="SourceGraphic" in2="effect1_dropShadow_0_1" result="shape"/>
</filter>
</defs>
</svg>
